<svg xmlns="http://www.w3.org/2000/svg" 
width="27" 
height="27"
viewBox="0 0 39 39">
<path fill="#00e676" d="M10.7 32.8l.6.3A16 16 0 0 0 30.7 8 15.9 15.9 0 0 0 3.5 19.4c0 3 .9 5.9 2.4 8.4l.4.6-1.6 5.9 6-1.5z"/>

<path fill="#fff" d="M32.4 6.4A18.3 18.3 0 0 0 3.6 28.5L1 38l9.7-2.5A18.4 18.4 0 0 0 32.4 6.4zM19.5 34.6c-2.7 0-5.4-.7-7.7-2.1l-.6-.3-5.8 1.5L6.9 28l-.4-.6c-4.4-7.1-2.3-16.5 4.9-20.9s16.5-2.3 20.9 4.9a15.1 15.1 0 0 1-12.8 23.2zm8.8-11.1l-1.1-.5-2.6-1.2-.3-.1-.7.2-1.5 1.7c-.1.2-.3.3-.5.3h-.1a.8.8 0 0 1-.4-.2l-.5-.2a9.7 9.7 0 0 1-2.9-1.9L17 21c-.7-.7-1.4-1.5-1.9-2.4l-.1-.2-.2-.4.1-.5.7-.8.5-.7c.2-.3.3-.7.2-1a39 39 0 0 0-1.6-3.8c-.2-.3-.4-.4-.7-.5h-1.1l-.6.1-.1.1-.6.4-.5.6c-.7.9-1.1 2-1.1 3.1 0 .8.2 1.6.5 2.3l.1.3c.9 1.9 2.1 3.6 3.7 5.1l.4.4.8.8c2.1 1.8 4.5 3.1 7.2 3.8l1 .2h1c.5 0 1.1-.2 1.5-.4l.7-.4.2-.2.6-.5.5-.6.4-1.4v-.7l-.3-.2z"/></svg>